<svg xmlns="http://www.w3.org/2000/svg" role="img" aria-label="Spotler" width="256" height="74" viewBox="0 0 3072 888">
<title>Spotler</title>
<g transform="translate(0,888) scale(0.1,-0.1)" fill="#002a4d" stroke="none">
<path d="M19463 8868 c-14 -21 -16 -5207 -3 -5318 7 -52 27 -140 45 -195 18
-55 36 -126 40 -158 10 -83 38 -174 78 -253 20 -38 45 -95 57 -127 13 -34 32
-64 47 -74 13 -9 40 -47 58 -84 29 -57 84 -124 172 -212 100 -99 166 -154 208
-172 27 -13 71 -41 97 -64 26 -24 71 -50 103 -61 30 -10 81 -35 113 -54 38
-24 95 -45 174 -65 64 -16 138 -41 165 -54 73 -37 113 -46 297 -62 92 -8 172
-17 176 -20 4 -3 135 -5 291 -6 362 -1 382 5 403 124 11 58 8 975 -3 1031 -17
91 -73 119 -221 109 -94 -7 -178 7 -335 53 -196 58 -200 60 -300 152 -68 61
-100 99 -117 136 -13 28 -43 89 -67 136 -43 82 -45 89 -54 210 -5 69 -12 1225
-15 2570 -4 1345 -11 2451 -15 2458 -6 9 -157 12 -697 12 -540 0 -691 -3 -697
-12z M16840 8270 c-515 -5 -536 -6 -570 -25 -19 -12 -43 -36 -55 -55 -20 -35
-20 -43 -23 -2325 -4 -2555 -5 -2524 55 -2648 19 -40 43 -112 54 -160 10 -50
31 -111 48 -140 16 -29 48 -87 71 -130 22 -42 55 -94 74 -115 18 -20 43 -56
56 -79 13 -24 41 -55 62 -69 21 -15 48 -42 59 -61 12 -19 45 -52 75 -74 30
-22 61 -50 70 -63 8 -13 38 -35 67 -49 29 -13 74 -43 102 -66 29 -24 76 -50
113 -62 34 -11 75 -31 90 -44 45 -38 85 -53 189 -74 57 -12 133 -36 174 -56
83 -39 218 -65 339 -65 41 0 98 -6 125 -13 61 -16 574 -13 636 3 28 8 46 21
59 43 19 31 20 54 20 580 0 599 0 596 -58 618 -15 6 -106 12 -202 13 -163 3
-180 5 -250 31 -67 24 -149 49 -233 69 -15 4 -46 23 -69 44 -22 20 -62 51 -87
67 -33 21 -53 45 -71 82 -14 29 -36 65 -51 80 -46 51 -50 60 -69 175 -11 63
-24 126 -29 141 -11 29 -17 1841 -6 1869 4 9 19 25 33 35 25 16 56 18 355 19
375 2 351 -4 420 94 40 57 58 109 81 233 8 43 33 117 55 166 28 60 46 118 57
182 15 91 38 152 89 234 29 47 33 120 10 164 -8 16 -35 39 -62 52 l-48 24
-458 2 c-504 1 -489 -1 -522 64 -14 27 -16 97 -15 578 l1 547 -27 50 c-47 89
-103 128 -174 122 -14 -2 -266 -5 -560 -8z M1985 7146 c-28 -7 -57 -16 -64
-20 -8 -5 -68 -12 -135 -16 -152 -10 -380 -36 -424 -49 -19 -6 -63 -26 -100
-46 -39 -22 -95 -42 -137 -50 -92 -18 -115 -27 -145 -60 -14 -15 -61 -45 -105
-66 -44 -22 -109 -62 -145 -90 -80 -62 -206 -183 -250 -241 -19 -24 -50 -61
-71 -83 -21 -22 -50 -67 -64 -99 -14 -33 -41 -77 -60 -99 -24 -27 -38 -57 -45
-96 -6 -31 -24 -96 -40 -146 -16 -49 -31 -117 -35 -150 -3 -33 -13 -102 -22
-152 -16 -91 -16 -95 6 -174 16 -58 21 -95 16 -128 -6 -48 4 -91 49 -216 13
-38 27 -86 31 -106 3 -22 26 -65 55 -104 28 -37 50 -74 50 -81 0 -17 90 -120
210 -240 143 -143 182 -179 220 -202 19 -11 50 -37 69 -56 22 -22 61 -46 104
-62 37 -14 89 -42 115 -61 25 -20 79 -47 120 -60 40 -14 94 -41 119 -60 45
-34 83 -50 170 -73 22 -5 65 -27 94 -47 37 -25 81 -43 140 -58 59 -14 107 -34
150 -62 39 -25 95 -50 143 -63 49 -13 97 -34 125 -54 25 -19 76 -48 114 -64
37 -17 86 -47 110 -66 23 -20 62 -51 87 -69 25 -18 51 -46 59 -62 21 -43 26
-128 11 -193 -10 -46 -22 -66 -67 -114 -64 -67 -116 -90 -254 -114 -49 -8
-113 -26 -142 -39 -64 -31 -70 -31 -135 0 -43 20 -70 25 -130 25 -43 0 -99 7
-127 16 -27 8 -97 22 -155 30 -130 18 -132 19 -202 61 -35 21 -85 40 -130 49
-91 18 -121 30 -178 68 -24 16 -84 44 -131 61 -48 18 -109 48 -136 67 -26 19
-73 43 -102 53 -35 11 -72 34 -101 61 -72 68 -121 79 -197 45 -54 -25 -71 -58
-89 -179 -10 -72 -25 -120 -58 -191 -32 -70 -48 -123 -60 -195 -18 -111 -35
-147 -83 -173 l-33 -18 0 -152 0 -152 42 -12 c30 -8 55 -25 88 -61 25 -28 59
-57 75 -65 17 -8 51 -33 77 -55 26 -21 74 -50 105 -64 32 -14 76 -43 98 -64
27 -25 62 -45 108 -60 37 -12 88 -38 113 -57 55 -42 78 -51 173 -69 46 -9 101
-29 145 -53 82 -44 88 -46 232 -65 60 -8 134 -24 164 -37 91 -37 222 -51 530
-56 330 -5 429 4 575 52 57 19 142 38 199 44 99 12 132 23 231 81 28 16 68 32
90 36 56 9 114 36 155 74 19 17 56 42 82 55 57 28 118 79 241 202 155 154 195
199 211 238 9 21 32 55 51 77 40 43 51 68 66 143 6 27 28 79 50 115 51 86 57
124 65 375 8 281 -8 416 -64 525 -21 41 -46 105 -56 142 -13 48 -29 80 -55
110 -21 24 -50 64 -65 89 -40 69 -317 343 -390 386 -34 19 -79 52 -102 73 -22
20 -67 47 -100 59 -32 13 -79 39 -103 58 -24 20 -73 47 -110 60 -36 14 -87 38
-112 54 -26 16 -84 42 -130 58 -46 15 -124 49 -174 74 -49 25 -117 51 -150 58
-68 14 -101 29 -157 70 -24 17 -68 34 -113 44 -51 12 -89 28 -122 52 -26 19
-84 51 -128 72 -64 31 -95 54 -156 117 -86 89 -98 120 -79 209 9 44 23 67 79
132 76 88 104 104 225 128 94 18 381 21 501 4 181 -25 241 -39 310 -74 39 -19
104 -42 145 -51 81 -18 117 -33 167 -71 18 -14 60 -33 93 -44 77 -24 96 -34
142 -75 52 -47 136 -87 183 -88 50 -1 115 32 137 70 9 16 24 69 32 117 11 66
26 107 57 163 35 63 43 92 55 177 11 76 24 123 54 187 53 117 72 187 73 281
l2 80 -40 35 c-22 18 -59 52 -82 75 -24 22 -71 54 -105 71 -34 16 -79 44 -99
62 -20 17 -66 42 -101 54 -34 13 -86 39 -114 58 -36 25 -80 43 -150 60 -53 13
-123 36 -153 50 -116 54 -194 68 -501 94 -58 5 -147 18 -197 29 -105 24 -248
27 -328 7z M24490 7138 c-32 -15 -75 -23 -145 -28 -55 -4 -163 -17 -240 -29
-117 -18 -152 -28 -215 -60 -44 -23 -103 -43 -144 -50 -77 -14 -94 -21 -149
-64 -21 -16 -71 -42 -112 -57 -40 -15 -93 -43 -117 -63 -24 -19 -73 -48 -110
-65 -36 -16 -74 -41 -83 -55 -9 -14 -35 -37 -58 -53 -94 -61 -291 -250 -330
-315 -14 -24 -39 -53 -56 -64 -17 -11 -42 -42 -57 -69 -15 -27 -43 -66 -64
-87 -20 -21 -47 -64 -59 -95 -11 -31 -39 -76 -60 -100 -28 -32 -44 -63 -57
-112 -20 -75 -36 -113 -70 -158 -28 -37 -49 -92 -58 -157 -4 -27 -28 -105 -52
-174 -46 -130 -47 -134 -77 -453 -24 -248 1 -857 43 -1045 6 -28 27 -84 45
-126 19 -41 41 -108 50 -148 17 -83 16 -81 62 -138 19 -23 38 -56 43 -75 5
-18 14 -52 20 -75 6 -24 29 -63 51 -89 22 -26 52 -72 65 -102 13 -30 39 -71
57 -91 18 -20 48 -63 66 -94 18 -32 43 -64 56 -73 12 -8 37 -36 54 -62 18 -26
50 -59 70 -74 21 -15 48 -42 60 -60 13 -18 40 -45 60 -60 21 -15 49 -43 62
-62 14 -21 45 -46 74 -60 28 -13 70 -41 95 -63 25 -21 68 -52 95 -68 28 -15
68 -43 89 -61 21 -18 60 -40 86 -49 26 -9 77 -35 114 -59 51 -34 88 -49 158
-65 56 -13 110 -33 138 -51 64 -41 91 -50 215 -69 61 -10 144 -27 185 -39 207
-59 236 -62 582 -62 339 0 446 9 573 49 77 25 140 38 245 52 111 14 144 24
211 65 40 24 86 40 154 54 78 15 110 27 160 60 35 23 98 52 141 65 50 16 92
36 114 56 19 18 60 43 90 57 30 14 75 43 100 65 25 21 65 50 90 62 25 13 83
59 130 103 79 73 85 82 84 118 0 26 -11 56 -31 89 -17 28 -39 75 -48 105 -11
33 -31 67 -50 85 -39 36 -50 56 -74 134 -10 33 -33 78 -50 99 -17 22 -44 70
-61 107 -16 37 -46 85 -65 107 -19 23 -42 64 -51 92 -35 109 -76 146 -159 146
-39 0 -51 -5 -80 -34 -19 -19 -56 -47 -82 -62 -27 -16 -66 -43 -89 -61 -22
-17 -67 -42 -100 -55 -32 -12 -84 -39 -115 -61 -41 -28 -79 -44 -140 -58 -54
-13 -102 -32 -134 -53 -68 -44 -98 -53 -223 -66 -59 -6 -159 -20 -222 -32
-144 -25 -291 -21 -541 15 -166 24 -182 28 -268 72 -50 25 -117 55 -148 67
-31 11 -75 37 -97 58 -23 20 -57 46 -77 58 -20 12 -47 37 -59 55 -13 19 -39
44 -58 57 -19 13 -48 48 -64 77 -17 30 -39 58 -49 64 -24 13 -53 70 -72 143
-9 31 -31 83 -49 114 -46 77 -57 110 -64 202 -6 73 -5 78 17 94 22 15 153 16
1617 16 1128 0 1606 3 1637 11 94 24 96 37 96 501 0 457 -15 622 -69 744 -19
43 -38 111 -47 170 -22 136 -22 135 -70 209 -26 39 -49 89 -56 122 -8 32 -27
76 -46 102 -18 25 -47 74 -65 109 -17 35 -46 75 -64 90 -17 15 -42 45 -55 67
-49 86 -226 263 -392 393 -23 18 -67 52 -97 76 -33 26 -82 52 -123 65 -37 13
-86 38 -109 57 -53 45 -59 48 -148 69 -41 9 -112 35 -156 56 -93 45 -204 65
-419 79 -71 4 -168 17 -215 29 -122 30 -325 30 -390 -1z m498 -1143 c96 -16
138 -31 162 -60 7 -9 43 -34 79 -55 74 -44 173 -148 197 -207 9 -21 34 -62 55
-92 78 -108 101 -284 44 -331 -21 -17 -1748 -14 -1784 3 -14 7 -30 25 -35 40
-9 24 -5 38 21 90 17 34 39 84 49 111 9 27 31 65 49 85 18 20 42 54 53 76 28
55 179 190 244 219 29 13 77 40 106 60 60 40 99 53 204 65 128 15 454 12 556
-4z M10764 7111 c-494 -6 -513 -7 -534 -26 -12 -11 -26 -30 -31 -42 -4 -12 -9
-305 -10 -652 -1 -596 0 -631 17 -668 39 -79 101 -46 129 69 11 41 32 91 52
121 20 29 48 80 64 114 16 33 41 69 55 78 14 9 37 35 52 59 15 23 50 68 77
100 88 104 409 422 454 450 23 15 56 42 71 60 16 18 53 45 82 60 29 16 68 40
86 53 18 14 61 36 94 49 34 13 72 31 84 39 31 20 57 71 49 96 -16 48 -24 49
-791 40z M12692 7114 c-4 -1 -72 -7 -152 -14 -250 -20 -286 -27 -374 -69 -53
-26 -117 -47 -186 -61 -75 -15 -118 -29 -150 -50 -50 -33 -103 -59 -172 -84
-26 -9 -64 -31 -85 -48 -21 -16 -61 -40 -89 -53 -27 -12 -74 -43 -102 -69 -29
-25 -69 -54 -90 -65 -20 -10 -46 -29 -57 -41 -11 -13 -44 -38 -73 -57 -68 -44
-346 -325 -380 -383 -14 -25 -40 -61 -58 -80 -17 -19 -42 -55 -54 -80 -12 -25
-40 -63 -61 -85 -27 -28 -46 -63 -63 -113 -14 -40 -40 -94 -59 -120 -18 -26
-46 -83 -61 -127 -16 -44 -37 -92 -47 -107 -31 -43 -49 -95 -65 -181 -7 -44
-29 -126 -48 -181 -20 -58 -39 -139 -45 -191 -22 -196 -34 -410 -27 -498 4
-51 11 -159 16 -242 8 -139 11 -158 49 -262 22 -62 47 -150 55 -196 15 -89 34
-142 65 -185 10 -15 33 -71 49 -125 22 -68 41 -110 65 -138 19 -22 45 -68 57
-102 14 -40 37 -78 65 -107 24 -25 50 -62 58 -82 9 -20 33 -56 54 -80 22 -24
51 -64 66 -89 29 -51 262 -288 377 -384 40 -33 93 -72 119 -87 25 -15 69 -47
96 -71 28 -24 72 -53 98 -65 27 -12 66 -35 86 -52 21 -16 74 -42 118 -58 44
-15 98 -42 119 -59 22 -17 62 -38 89 -46 113 -33 155 -47 248 -81 69 -26 129
-39 200 -47 56 -6 127 -17 157 -24 31 -8 102 -13 165 -13 93 1 117 -2 155 -20
58 -28 78 -27 150 3 51 21 73 25 174 24 64 0 120 2 124 5 4 3 57 10 118 16
152 15 196 25 285 65 42 20 114 44 160 55 107 26 132 36 175 71 19 15 70 39
112 54 44 14 92 38 112 56 19 17 62 45 96 61 33 16 75 45 93 64 19 19 50 44
71 54 21 11 60 38 87 61 26 24 66 54 88 68 22 14 81 68 130 120 50 52 110 115
135 140 25 26 60 71 77 101 18 30 46 69 63 85 18 17 43 52 56 78 14 26 40 65
59 86 20 21 48 70 64 109 16 39 45 92 64 117 24 30 42 72 57 128 12 46 39 111
61 149 33 55 44 85 60 178 11 62 27 129 35 149 8 20 26 90 39 156 23 111 25
143 25 445 1 274 -1 332 -15 370 -9 25 -18 72 -21 105 -3 33 -17 85 -30 116
-13 31 -29 94 -35 140 -14 109 -24 142 -64 209 -18 30 -43 92 -55 137 -15 55
-34 98 -56 128 -19 25 -48 75 -65 112 -17 38 -45 84 -64 103 -19 19 -44 58
-56 85 -12 28 -42 73 -68 102 -107 120 -148 169 -181 219 -19 29 -58 70 -87
93 -28 22 -57 49 -65 59 -7 10 -38 36 -68 57 -30 22 -72 54 -92 72 -21 18 -57
44 -80 59 -24 14 -59 41 -78 60 -19 18 -64 47 -100 65 -35 17 -82 46 -104 65
-24 21 -66 42 -106 54 -37 11 -94 38 -126 60 -48 32 -80 44 -160 61 -54 12
-119 31 -144 44 -92 46 -172 63 -400 85 -92 9 -546 20 -578 14z m360 -1329
c40 -9 128 -22 195 -30 123 -14 160 -27 220 -72 18 -14 62 -34 99 -45 50 -15
78 -30 106 -59 22 -22 58 -51 81 -65 54 -33 253 -238 278 -286 10 -20 36 -57
58 -82 24 -28 51 -77 70 -128 18 -46 48 -118 67 -160 31 -67 37 -95 50 -215
23 -226 18 -384 -17 -588 -6 -37 -25 -85 -49 -125 -21 -36 -47 -97 -59 -136
-11 -39 -30 -79 -42 -90 -12 -10 -40 -46 -62 -79 -108 -160 -300 -345 -395
-380 -26 -10 -67 -32 -92 -50 -67 -48 -81 -54 -182 -74 -60 -12 -118 -32 -162
-55 l-68 -36 -242 2 -242 3 -64 33 c-35 19 -104 42 -153 53 -95 21 -114 28
-163 65 -16 13 -57 35 -89 49 -33 15 -73 42 -91 60 -17 18 -55 48 -85 66 -74
45 -86 55 -131 124 -22 33 -55 72 -73 88 -19 15 -45 51 -60 80 -14 28 -40 73
-59 99 -21 29 -40 74 -51 120 -10 40 -33 102 -52 138 -51 101 -63 179 -63 429
0 237 6 274 62 384 16 32 36 90 45 128 12 57 25 83 64 131 26 33 55 82 64 109
12 34 29 59 55 81 22 17 50 48 64 69 14 20 39 46 56 55 17 10 42 36 57 57 15
21 45 49 68 62 23 14 52 36 66 51 30 32 63 49 139 73 33 11 81 33 108 49 77
50 111 60 263 77 79 9 160 20 179 25 57 13 154 11 232 -5z M7255 7100 c-27 -5
-89 -9 -137 -9 -146 -2 -234 -18 -328 -61 -47 -22 -126 -49 -176 -60 -71 -16
-102 -29 -142 -59 -28 -22 -82 -51 -120 -65 -38 -15 -82 -40 -98 -57 -16 -16
-50 -43 -75 -60 -26 -17 -59 -45 -73 -63 -13 -18 -38 -39 -55 -46 -79 -32
-113 27 -91 161 7 42 9 87 5 100 -10 34 -44 68 -90 91 -39 20 -53 21 -634 19
-635 -2 -640 -3 -675 -52 -15 -22 -16 -294 -16 -3399 0 -1856 3 -3412 7 -3457
l6 -83 682 0 681 0 15 78 c11 63 14 262 16 1099 1 563 4 1027 8 1033 21 33
149 -25 242 -111 24 -22 69 -51 100 -65 32 -14 69 -36 83 -48 34 -32 74 -51
140 -66 30 -7 96 -30 145 -50 159 -67 271 -81 648 -81 362 0 508 14 612 58
101 42 127 51 200 67 45 11 89 29 122 52 28 20 86 49 129 64 47 18 91 43 113
64 20 18 60 46 89 60 92 46 461 398 530 506 20 30 53 73 73 95 21 22 47 66 59
97 11 31 38 78 59 105 23 29 46 75 59 118 12 39 33 86 47 105 44 59 56 88 76
192 12 63 31 123 53 166 44 86 54 125 62 247 3 55 12 136 19 180 7 44 10 99 8
122 -3 28 3 67 18 115 21 65 24 92 24 238 0 144 -3 174 -22 234 -16 46 -23 92
-23 144 0 197 -45 494 -88 584 -33 69 -57 147 -67 220 -4 31 -21 69 -51 114
-24 38 -44 73 -44 79 0 42 -36 121 -74 164 -25 28 -51 71 -61 101 -9 28 -34
71 -55 95 -21 24 -52 69 -70 100 -17 31 -42 62 -55 71 -12 8 -37 36 -55 62
-18 27 -48 59 -67 72 -19 13 -48 42 -64 65 -16 22 -44 49 -62 60 -17 10 -51
35 -74 56 -22 21 -65 50 -95 65 -29 15 -78 46 -108 69 -30 23 -80 54 -110 69
-30 14 -75 40 -100 56 -32 21 -71 34 -135 46 -62 11 -110 27 -153 51 -39 21
-93 41 -140 49 -139 27 -558 48 -647 34z m56 -1229 c108 -9 124 -14 195 -62
23 -15 70 -39 105 -54 78 -31 186 -132 358 -335 38 -45 81 -137 81 -174 0 -6
18 -37 40 -70 46 -68 55 -96 71 -225 6 -52 17 -115 25 -140 7 -25 14 -79 14
-120 0 -50 7 -96 22 -138 21 -63 21 -65 4 -126 -10 -34 -22 -117 -27 -184 -5
-68 -16 -151 -24 -185 -8 -35 -18 -97 -23 -139 -8 -62 -18 -90 -50 -145 -23
-38 -51 -100 -62 -137 -16 -50 -33 -82 -68 -120 -26 -29 -57 -68 -69 -87 -12
-19 -36 -46 -52 -58 -17 -13 -43 -40 -57 -62 -17 -26 -47 -50 -93 -74 -38 -20
-74 -43 -81 -52 -22 -26 -80 -50 -165 -69 -44 -10 -134 -33 -200 -51 -147 -41
-213 -43 -293 -10 -31 13 -79 27 -107 31 -92 12 -239 62 -265 90 -14 15 -52
43 -85 62 -88 53 -236 205 -259 268 -11 28 -38 71 -62 96 -26 29 -47 63 -54
90 -21 81 -32 114 -67 191 -46 104 -63 234 -70 517 -7 291 8 463 58 656 6 22
22 57 35 78 14 21 32 69 41 108 12 53 25 81 55 117 22 26 48 66 58 88 20 45
119 150 181 191 21 14 49 39 62 57 38 48 253 153 342 166 39 5 95 14 125 19
57 10 178 8 361 -8z M30145 7075 c-94 -10 -121 -17 -184 -49 -41 -21 -104 -44
-142 -52 -91 -19 -116 -29 -157 -65 -19 -17 -58 -42 -87 -55 -29 -14 -72 -42
-96 -62 -23 -20 -68 -53 -99 -72 -75 -46 -180 -160 -218 -236 -33 -65 -52 -80
-82 -64 -30 16 -34 45 -31 256 3 238 -3 266 -66 284 -27 8 -217 10 -636 8
l-599 -3 -29 -33 -29 -32 -2 -2408 c-2 -1324 -3 -2435 -3 -2469 0 -59 2 -65
36 -99 l37 -37 605 2 c362 0 615 5 630 10 54 21 52 -24 58 1126 7 1186 14
1370 53 1513 14 51 30 101 35 110 5 9 16 55 25 101 18 87 29 115 70 176 14 20
37 68 52 108 16 43 40 84 59 102 17 17 44 51 58 77 15 26 41 55 57 65 17 10
42 35 57 55 14 21 42 48 62 60 20 11 52 36 71 55 20 18 73 48 117 67 45 18 94
43 110 53 94 66 202 83 555 83 141 0 263 3 272 6 14 6 16 76 16 693 l0 687
-108 27 c-92 23 -128 27 -233 26 -68 -1 -173 -7 -234 -14z"/>
</g>
</svg>
